RBDS022runT35_grf
version=1
nRows=21
nColumns=19
inDegrees=no
endheader
time	ground_force_r_vx	ground_force_r_vy	ground_force_r_vz	ground_force_r_px	ground_force_r_py	ground_force_r_pz	ground_force_r_mx	ground_force_r_my	ground_force_r_mz	ground_force_l_vx	ground_force_l_vy	ground_force_l_vz	ground_force_l_px	ground_force_l_py	ground_force_l_pz	ground_force_l_mx	ground_force_l_my	ground_force_l_mz
     22.49800000	      0.00000000	      0.00000000	      0.00000000	      0.00000000	      0.00000000	      0.00000000	      0.00000000	      0.00000000	      0.00000000	   -196.50431814	   1276.72631468	     38.20275298	      2.34425206	      0.00000000	      1.00245080	     -0.00000000	      0.05309867	      0.00000000
     22.49900000	      0.00000000	      0.00000000	      0.00000000	      0.00000000	      0.00000000	      0.00000000	      0.00000000	      0.00000000	      0.00000000	   -199.26968700	   1288.34060782	     39.96191227	      2.34283167	      0.00000000	      1.00222807	     -0.00000000	      0.13015046	      0.00000000
     22.50000000	      0.00000000	      0.00000000	      0.00000000	      0.00000000	      0.00000000	      0.00000000	      0.00000000	      0.00000000	      0.00000000	   -202.03505585	   1299.95490095	     41.72107157	      2.34141127	      0.00000000	      1.00200534	      0.00000000	      0.20720226	      0.00000000
     22.50100000	      0.00000000	      0.00000000	      0.00000000	      0.00000000	      0.00000000	      0.00000000	      0.00000000	      0.00000000	      0.00000000	   -204.32727184	   1310.45305816	     43.46848046	      2.33990075	      0.00000000	      1.00177597	      0.00000000	      0.30056627	      0.00000000
     22.50200000	      0.00000000	      0.00000000	      0.00000000	      0.00000000	      0.00000000	      0.00000000	      0.00000000	      0.00000000	      0.00000000	   -206.61948782	   1320.95121537	     45.21588936	      2.33839023	      0.00000000	      1.00154659	      0.00000000	      0.39393029	      0.00000000
     22.50300000	      0.00000000	      0.00000000	      0.00000000	      0.00000000	      0.00000000	      0.00000000	      0.00000000	      0.00000000	      0.00000000	   -208.91170381	   1331.44937259	     46.96329825	      2.33687971	      0.00000000	      1.00131722	      0.00000000	      0.48729431	      0.00000000
     22.50400000	      0.00000000	      0.00000000	      0.00000000	      0.00000000	      0.00000000	      0.00000000	      0.00000000	      0.00000000	      0.00000000	   -210.85128531	   1341.29136577	     48.67556111	      2.33530846	      0.00000000	      1.00108545	      0.00000000	      0.59040545	      0.00000000
     22.50500000	      0.00000000	      0.00000000	      0.00000000	      0.00000000	      0.00000000	      0.00000000	      0.00000000	      0.00000000	      0.00000000	   -212.61454956	   1350.80527694	     50.37025095	      2.33370685	      0.00000000	      1.00085248	      0.00000000	      0.69839014	      0.00000000
     22.50600000	      0.00000000	      0.00000000	      0.00000000	      0.00000000	      0.00000000	      0.00000000	      0.00000000	      0.00000000	      0.00000000	   -214.37781382	   1360.31918811	     52.06494079	      2.33210523	      0.00000000	      1.00061951	      0.00000000	      0.80637484	      0.00000000
     22.50700000	      0.00000000	      0.00000000	      0.00000000	      0.00000000	      0.00000000	      0.00000000	      0.00000000	      0.00000000	      0.00000000	   -215.94888369	   1369.54400489	     53.72881230	      2.33047317	      0.00000000	      1.00038632	      0.00000000	      0.91851183	      0.00000000
     22.50800000	      0.00000000	      0.00000000	      0.00000000	      0.00000000	      0.00000000	      0.00000000	      0.00000000	      0.00000000	      0.00000000	   -217.13556478	   1378.19063286	     55.33104717	      2.32878021	      0.00000000	      1.00015269	      0.00000000	      1.03895343	      0.00000000
     22.50900000	      0.00000000	      0.00000000	      0.00000000	      0.00000000	      0.00000000	      0.00000000	      0.00000000	      0.00000000	      0.00000000	   -218.32224587	   1386.83726084	     56.93328204	      2.32708726	      0.00000000	      0.99991906	      0.00000000	      1.15939503	      0.00000000
     22.51000000	      0.00000000	      0.00000000	      0.00000000	      0.00000000	      0.00000000	      0.00000000	      0.00000000	      0.00000000	      0.00000000	   -219.50892697	   1395.48388882	     58.53551691	      2.32539430	      0.00000000	      0.99968543	      0.00000000	      1.27983663	      0.00000000
     22.51100000	      0.00000000	      0.00000000	      0.00000000	      0.00000000	      0.00000000	      0.00000000	      0.00000000	      0.00000000	      0.00000000	   -220.08157299	   1403.36050083	     60.00832984	      2.32361046	      0.00000000	      0.99945391	      0.00000000	      1.41018082	      0.00000000
     22.51200000	      0.00000000	      0.00000000	      0.00000000	      0.00000000	      0.00000000	      0.00000000	      0.00000000	      0.00000000	      0.00000000	   -220.65421902	   1411.23711284	     61.48114277	      2.32182662	      0.00000000	      0.99922239	      0.00000000	      1.54052500	      0.00000000
     22.51300000	      0.00000000	      0.00000000	      0.00000000	      0.00000000	      0.00000000	      0.00000000	      0.00000000	      0.00000000	      0.00000000	   -221.22686504	   1419.11372485	     62.95395570	      2.32004277	      0.00000000	      0.99899087	      0.00000000	      1.67086919	      0.00000000
     22.51400000	      0.00000000	      0.00000000	      0.00000000	      0.00000000	      0.00000000	      0.00000000	      0.00000000	      0.00000000	      0.00000000	   -221.37292918	   1426.52665948	     64.31857139	      2.31819909	      0.00000000	      0.99876246	      0.00000000	      1.80592033	      0.00000000
     22.51500000	      0.00000000	      0.00000000	      0.00000000	      0.00000000	      0.00000000	      0.00000000	      0.00000000	      0.00000000	      0.00000000	   -221.30570238	   1433.70775540	     65.62908847	      2.31632548	      0.00000000	      0.99853562	     -0.00000000	      1.94332495	      0.00000000
     22.51600000	      0.00000000	      0.00000000	      0.00000000	      0.00000000	      0.00000000	      0.00000000	      0.00000000	      0.00000000	      0.00000000	   -221.23847558	   1440.88885133	     66.93960554	      2.31445187	      0.00000000	      0.99830877	     -0.00000000	      2.08072957	      0.00000000
     22.51700000	      0.00000000	      0.00000000	      0.00000000	      0.00000000	      0.00000000	      0.00000000	      0.00000000	      0.00000000	      0.00000000	   -220.95347821	   1447.85488204	     68.18677512	      2.31254891	      0.00000000	      0.99808427	     -0.00000000	      2.21948179	      0.00000000
     22.51800000	      0.00000000	      0.00000000	      0.00000000	      0.00000000	      0.00000000	      0.00000000	      0.00000000	      0.00000000	      0.00000000	   -220.23293968	   1454.39078233	     69.30724972	      2.31058724	      0.00000000	      0.99786446	     -0.00000000	      2.36092920	      0.00000000
